# xmcd CD database file
#
# Track frame offsets:
#	150
#	13924
#	24971
#	47160
#	61487
#	74455
#	87215
#	101065
#	111184
#	128743
#	146559
#
# Disc length: 2190 seconds
#
# Revision: 0
# Processed by: cddbd v1.4PL0 Copyright (c) Steve Scherf et al.
# Submitted via: CDex 1.50beta10
#
DISCID=98088c0b
DTITLE=Liarbird - Superba Menura
DYEAR=2002
DGENRE=Country
TTITLE0=Little Black Riding Hood
TTITLE1=Table Saw
TTITLE2=Ben Moore's
TTITLE3=Bombs
TTITLE4=Cup of Sugar
TTITLE5=Loose Lips
TTITLE6=Micheal Row
TTITLE7=Tangled Ball of Twine
TTITLE8=Burn Down Town
TTITLE9=Johnny Cash
TTITLE10=Lay Me Down
EXTD=YEAR: 2002
EXTT0=
EXTT1=
EXTT2=
EXTT3=
EXTT4=
EXTT5=
EXTT6=
EXTT7=
EXTT8=
EXTT9=
EXTT10=
PLAYORDER=
